<?xml version="1.0" encoding="UTF-8"?>
<svg width="200" height="200" viewBox="0 0 200 200" fill="none" xmlns="http://www.w3.org/2000/svg">
  <path d="M100 0C44.8 0 0 44.8 0 100s44.8 100 100 100 100-44.8 100-100S155.2 0 100 0zm0 180c-44.2 0-80-35.8-80-80s35.8-80 80-80 80 35.8 80 80-35.8 80-80 80z" fill="#2B5FD0"/>
  <path d="M140 70H60c-5.5 0-10 4.5-10 10v40c0 5.5 4.5 10 10 10h80c5.5 0 10-4.5 10-10V80c0-5.5-4.5-10-10-10zm-5 45H65V85h70v30z" fill="#2B5FD0"/>
  <path d="M85 100h30v10H85z" fill="#2B5FD0"/>
</svg> 